<svg xmlns="http://www.w3.org/2000/svg" viewBox="0 0 32 32">
  <rect width="32" height="32" rx="7" fill="#0b1018"/>
  <path d="M16 27c-4.6-1.9-8-6-8-10.6 0-2.6 1.8-4.6 4.3-5.1 1.3-.3 2.6-.1 3.7.4 1.1-.5 2.4-.7 3.7-.4 2.5.5 4.3 2.5 4.3 5.1 0 4.6-3.4 8.7-8 10.6Z" fill="#e63950"/>
  <path d="M16 11.4c-.5-1.5-1.7-2.6-3.2-3 .8-.4 1.7-.5 2.5-.3.1-1.2.8-2.3 1.8-2.9-.1 1.2.3 2.3 1.1 3.1.8-.5 1.8-.6 2.7-.3-1.3.7-2.2 1.9-2.6 3.3-.8-.3-1.6-.3-2.3 0Z" fill="#34c759"/>
  <ellipse cx="13.4" cy="18.6" rx="0.95" ry="1.35" fill="#fff" fill-opacity="0.85"/>
  <ellipse cx="18.1" cy="20.6" rx="0.95" ry="1.35" fill="#fff" fill-opacity="0.85"/>
</svg>
